<?xml version="1.0" encoding="UTF-8" standalone="no"?>
<!-- Created with Inkscape (http://www.inkscape.org/) -->

<svg
   xmlns:dc="http://purl.org/dc/elements/1.1/"
   xmlns:cc="http://creativecommons.org/ns#"
   xmlns:rdf="http://www.w3.org/1999/02/22-rdf-syntax-ns#"
   xmlns:svg="http://www.w3.org/2000/svg"
   xmlns="http://www.w3.org/2000/svg"
   xmlns:sodipodi="http://sodipodi.sourceforge.net/DTD/sodipodi-0.dtd"
   xmlns:inkscape="http://www.inkscape.org/namespaces/inkscape"
   width="78.964157mm"
   height="16.238647mm"
   viewBox="0 0 78.964157 16.238647"
   version="1.1"
   id="svg3709"
   inkscape:version="0.92.2 (5c3e80d, 2017-08-06)"
   sodipodi:docname="MongoStratusLogo.svg">
  <title
     id="title4606">MongoStratus Logo</title>
  <defs
     id="defs3703">
    <inkscape:path-effect
       effect="bspline"
       id="path-effect3791"
       is_visible="true"
       weight="33.333333"
       steps="2"
       helper_size="0"
       apply_no_weight="true"
       apply_with_weight="true"
       only_selected="false" />
    <inkscape:path-effect
       effect="bspline"
       id="path-effect3777"
       is_visible="true"
       weight="33.333333"
       steps="2"
       helper_size="0"
       apply_no_weight="true"
       apply_with_weight="true"
       only_selected="false" />
  </defs>
  <sodipodi:namedview
     id="base"
     pagecolor="#ffffff"
     bordercolor="#666666"
     borderopacity="1.0"
     inkscape:pageopacity="0"
     inkscape:pageshadow="2"
     inkscape:zoom="2.8"
     inkscape:cx="232.18207"
     inkscape:cy="-16.335121"
     inkscape:document-units="mm"
     inkscape:current-layer="layer1"
     showgrid="false"
     inkscape:window-width="1920"
     inkscape:window-height="1017"
     inkscape:window-x="-8"
     inkscape:window-y="165"
     inkscape:window-maximized="1"
     fit-margin-top="3"
     fit-margin-left="3"
     fit-margin-right="3"
     fit-margin-bottom="3"
     borderlayer="false" />
  <metadata
     id="metadata3706">
    <rdf:RDF>
      <cc:Work
         rdf:about="">
        <dc:format>image/svg+xml</dc:format>
        <dc:type
           rdf:resource="http://purl.org/dc/dcmitype/StillImage" />
        <dc:title>MongoStratus Logo</dc:title>
        <dc:date>02-03-2018</dc:date>
        <dc:creator>
          <cc:Agent>
            <dc:title>Vlad Zat</dc:title>
          </cc:Agent>
        </dc:creator>
      </cc:Work>
    </rdf:RDF>
  </metadata>
  <g
     inkscape:label="Layer 1"
     inkscape:groupmode="layer"
     id="layer1"
     transform="translate(0.42433459,-282.91792)"
     style="display:inline">
    <text
       xml:space="preserve"
       style="font-style:normal;font-variant:normal;font-weight:normal;font-stretch:normal;font-size:10.58333302px;line-height:1.25;font-family:Arvo;-inkscape-font-specification:Arvo;letter-spacing:0px;word-spacing:0px;fill:#000000;fill-opacity:1;stroke:none;stroke-width:0.26458332"
       x="130.59077"
       y="123.31993"
       id="text3747"><tspan
         sodipodi:role="line"
         id="tspan3745"
         x="130.59077"
         y="132.767"
         style="stroke-width:0.26458332"></tspan></text>
    <g
       aria-label="Mongo"
       style="font-style:normal;font-variant:normal;font-weight:normal;font-stretch:normal;font-size:10.58333302px;line-height:1.25;font-family:Arvo;-inkscape-font-specification:Arvo;letter-spacing:0px;word-spacing:0px;fill:#21ba45;fill-opacity:1;stroke:none;stroke-width:0.26458332"
       id="text4693">
      <path
         d="M 2.8591474,293.62868 H 3.603288 v -5.95829 H 2.8591474 v -0.98702 H 5.339616 l 2.4856364,6.76444 2.5166426,-6.76444 h 2.351277 v 0.98702 h -0.738973 v 5.95829 h 0.738973 v 0.88884 h -2.54248 v -0.88884 h 0.837158 v -6.01513 l -2.7388509,6.90397 H 7.3704998 l -2.7750244,-6.91948 v 6.03064 h 0.8061524 v 0.88884 H 2.8591474 Z"
         style="fill:#21ba45;fill-opacity:1;stroke-width:0.26458332"
         id="path4714" />
      <path
         d="m 13.582007,291.84068 q 0.0052,-0.63562 0.201538,-1.15755 0.201538,-0.52194 0.558105,-0.89401 0.356568,-0.37723 0.847494,-0.57877 0.490926,-0.20154 1.080037,-0.20154 0.594279,0 1.085205,0.20154 0.496094,0.20154 0.847494,0.57361 0.351399,0.3669 0.54777,0.88883 0.19637,0.52193 0.19637,1.15755 0,0.62529 -0.19637,1.15239 -0.196371,0.52193 -0.54777,0.89917 -0.3514,0.37723 -0.847494,0.58911 -0.490926,0.2067 -1.085205,0.2067 -0.604614,0 -1.09554,-0.2067 -0.490926,-0.20671 -0.842326,-0.57878 -0.3514,-0.37724 -0.54777,-0.89917 -0.196371,-0.52193 -0.201538,-1.15238 z m 1.018025,0 q 0,0.45992 0.129192,0.83199 0.134358,0.37207 0.361735,0.63562 0.232543,0.25838 0.532267,0.40307 0.304891,0.13953 0.645955,0.13953 0.356568,0 0.661458,-0.13953 0.310059,-0.13952 0.537435,-0.3979 0.227377,-0.26355 0.356568,-0.63562 0.129191,-0.37207 0.129191,-0.83716 0,-0.48576 -0.129191,-0.863 -0.129191,-0.37724 -0.356568,-0.63045 -0.222208,-0.25322 -0.532267,-0.38241 -0.310058,-0.12919 -0.666626,-0.12919 -0.341064,0 -0.645955,0.12919 -0.299724,0.12919 -0.532267,0.38241 -0.227377,0.25321 -0.361735,0.63045 -0.129192,0.37724 -0.129192,0.863 z"
         style="fill:#21ba45;fill-opacity:1;stroke-width:0.26458332"
         id="path4716" />
      <path
         d="m 23.483211,293.62868 h 0.754476 v -2.44429 q 0,-0.61495 -0.315227,-0.93018 -0.310058,-0.32039 -0.894002,-0.32039 -0.335897,0 -0.676961,0.16019 -0.341065,0.1602 -0.645955,0.39791 v 3.13676 h 0.754475 v 0.88884 h -2.501139 v -0.88884 h 0.744141 v -3.57601 h -0.744141 v -0.88883 H 21.6642 v 0.63045 h 0.01034 q 0.170532,-0.14986 0.361735,-0.28422 0.19637,-0.13436 0.408244,-0.23254 0.211873,-0.0982 0.439249,-0.15503 0.232544,-0.0568 0.485759,-0.0568 0.428914,0 0.775146,0.11886 0.346232,0.11886 0.589111,0.36173 0.24288,0.24288 0.372071,0.62529 0.134358,0.37724 0.134358,0.894 v 2.56315 h 0.744141 v 0.88884 h -2.501139 z"
         style="fill:#21ba45;fill-opacity:1;stroke-width:0.26458332"
         id="path4718" />
      <path
         d="m 30.945288,294.04726 q -0.26355,0.27905 -0.61495,0.43408 -0.346232,0.15503 -0.790649,0.15503 -0.542603,0 -1.012858,-0.18603 -0.465088,-0.19121 -0.81132,-0.55294 -0.341065,-0.3669 -0.537435,-0.894 -0.191203,-0.53227 -0.191203,-1.2144 0,-0.62012 0.186035,-1.12654 0.186035,-0.5116 0.5271,-0.86817 0.341064,-0.36173 0.821655,-0.5581 0.480591,-0.20154 1.069702,-0.20154 0.403076,0 0.72347,0.093 0.325562,0.0879 0.630453,0.31005 v -0.27388 h 0.961181 v 5.1418 q 0,1.27124 -0.604614,1.92237 -0.599447,0.65112 -1.870687,0.65112 -0.279053,0 -0.583944,-0.0413 -0.30489,-0.0413 -0.604614,-0.13436 -0.294555,-0.0879 -0.578776,-0.22738 -0.279053,-0.13952 -0.516764,-0.34106 l 0.516764,-0.78031 q 0.15503,0.13435 0.3514,0.24804 0.201538,0.11369 0.428914,0.1912 0.227377,0.0827 0.470256,0.1292 0.242879,0.0465 0.485758,0.0465 0.397909,0 0.687297,-0.0827 0.294555,-0.0827 0.480591,-0.29455 0.191202,-0.20671 0.28422,-0.56328 0.09302,-0.35656 0.09302,-0.90433 z m -1.281576,-0.24805 q 0.237712,0 0.434082,-0.0465 0.196371,-0.0465 0.356567,-0.11886 0.160197,-0.0775 0.279053,-0.1757 0.124024,-0.0982 0.211874,-0.20671 v -2.93005 q -0.26355,-0.23254 -0.609782,-0.3359 -0.341065,-0.10335 -0.7028,-0.10335 -0.341064,0 -0.640788,0.12919 -0.299723,0.12403 -0.527099,0.3669 -0.222209,0.24288 -0.3514,0.59428 -0.129191,0.3514 -0.129191,0.80616 0,0.49609 0.124024,0.87333 0.124023,0.37724 0.346232,0.63562 0.222208,0.25321 0.532267,0.3824 0.310058,0.12919 0.676961,0.12919 z"
         style="fill:#21ba45;fill-opacity:1;stroke-width:0.26458332"
         id="path4720" />
      <path
         d="m 33.198381,291.84068 q 0.0052,-0.63562 0.201538,-1.15755 0.201538,-0.52194 0.558105,-0.89401 0.356568,-0.37723 0.847494,-0.57877 0.490926,-0.20154 1.080037,-0.20154 0.594279,0 1.085205,0.20154 0.496094,0.20154 0.847494,0.57361 0.351399,0.3669 0.54777,0.88883 0.19637,0.52193 0.19637,1.15755 0,0.62529 -0.19637,1.15239 -0.196371,0.52193 -0.54777,0.89917 -0.3514,0.37723 -0.847494,0.58911 -0.490926,0.2067 -1.085205,0.2067 -0.604614,0 -1.09554,-0.2067 -0.490926,-0.20671 -0.842326,-0.57878 -0.3514,-0.37724 -0.54777,-0.89917 -0.196371,-0.52193 -0.201538,-1.15238 z m 1.018025,0 q 0,0.45992 0.129192,0.83199 0.134358,0.37207 0.361735,0.63562 0.232543,0.25838 0.532267,0.40307 0.304891,0.13953 0.645955,0.13953 0.356568,0 0.661458,-0.13953 0.310059,-0.13952 0.537435,-0.3979 0.227377,-0.26355 0.356568,-0.63562 0.129191,-0.37207 0.129191,-0.83716 0,-0.48576 -0.129191,-0.863 -0.129191,-0.37724 -0.356568,-0.63045 -0.222208,-0.25322 -0.532267,-0.38241 -0.310058,-0.12919 -0.666626,-0.12919 -0.341064,0 -0.645955,0.12919 -0.299724,0.12919 -0.532267,0.38241 -0.227377,0.25321 -0.361735,0.63045 -0.129192,0.37724 -0.129192,0.863 z"
         style="fill:#21ba45;fill-opacity:1;stroke-width:0.26458332"
         id="path4722" />
    </g>
    <g
       aria-label="Stratus"
       style="font-style:normal;font-variant:normal;font-weight:normal;font-stretch:normal;font-size:10.58333302px;line-height:1.25;font-family:Arvo;-inkscape-font-specification:Arvo;letter-spacing:0px;word-spacing:0px;fill:#1a1a1a;fill-opacity:1;stroke:none;stroke-width:0.26458332"
       id="text4697">
      <path
         d="m 44.067395,288.92612 q 0,-0.45476 -0.165364,-0.68213 -0.165365,-0.22738 -0.366903,-0.34623 -0.19637,-0.12403 -0.434082,-0.18604 -0.237711,-0.0672 -0.475423,-0.0672 -0.392741,0 -0.687297,0.093 -0.294555,0.0879 -0.490926,0.24288 -0.191202,0.15503 -0.289388,0.36173 -0.09819,0.20671 -0.09819,0.43409 0,0.34106 0.118856,0.55293 0.124023,0.20671 0.310058,0.3359 0.186036,0.12402 0.408244,0.19637 0.227377,0.0723 0.434082,0.14469 l 1.043864,0.34107 q 0.470256,0.14986 0.826823,0.34106 0.361735,0.19121 0.604614,0.45476 0.24288,0.25838 0.366903,0.59944 0.129191,0.34107 0.129191,0.79065 0,0.48576 -0.201538,0.89917 -0.19637,0.41341 -0.552938,0.7183 -0.356567,0.3049 -0.852661,0.4806 -0.490926,0.17053 -1.080037,0.17053 -0.604615,0 -1.033529,-0.13953 -0.428914,-0.13436 -0.72347,-0.36173 -0.289388,-0.23255 -0.465088,-0.5271 -0.1757,-0.29456 -0.273885,-0.60462 h -0.392741 v -0.88883 h 1.302246 q 0,0.57361 0.118856,0.81132 0.124023,0.23771 0.341064,0.39791 0.217042,0.15503 0.516765,0.23771 0.299723,0.0775 0.661458,0.0775 0.3514,0 0.630453,-0.0827 0.28422,-0.0827 0.48059,-0.23771 0.201538,-0.1602 0.304891,-0.38241 0.108521,-0.22737 0.108521,-0.51159 0,-0.31523 -0.134359,-0.53227 -0.129191,-0.22221 -0.335897,-0.37724 -0.206705,-0.15503 -0.454752,-0.25321 -0.24288,-0.0982 -0.470256,-0.17054 l -1.131714,-0.32039 q -0.37207,-0.11369 -0.682129,-0.28939 -0.30489,-0.1757 -0.527099,-0.42891 -0.217041,-0.25322 -0.335897,-0.58911 -0.118856,-0.34107 -0.118856,-0.78549 0,-0.44958 0.1757,-0.84232 0.1757,-0.39274 0.516764,-0.6873 0.341065,-0.29455 0.831991,-0.45992 0.496094,-0.17053 1.131714,-0.17053 0.418579,0 0.769979,0.0982 0.356567,0.0982 0.640787,0.27905 0.289388,0.1757 0.506429,0.42891 0.222209,0.24805 0.372071,0.54777 h 0.387573 v 0.88884 z"
         style="fill:#1a1a1a;stroke-width:0.26458332"
         id="path4699" />
      <path
         d="m 47.85011,289.27752 h 1.255737 v 0.78031 h -1.266072 l -0.0155,3.09025 q 0,0.31523 0.07235,0.5116 0.07235,0.19637 0.232544,0.27388 0.160197,0.0723 0.361735,0.0723 0.217041,0 0.382405,-0.0362 0.165365,-0.0413 0.361735,-0.13436 l 0.222209,0.64595 q -0.248047,0.12919 -0.521932,0.20154 -0.273885,0.0775 -0.645955,0.0775 -0.3514,0 -0.61495,-0.0878 -0.258382,-0.0827 -0.439249,-0.28422 -0.1757,-0.20154 -0.26355,-0.53744 -0.08785,-0.34106 -0.08785,-0.84749 l 0.0155,-2.94556 h -0.852661 v -0.78031 h 0.862996 v -1.28158 l 0.940511,-0.44442 z"
         style="fill:#1a1a1a;stroke-width:0.26458332"
         id="path4701" />
      <path
         d="m 54.097791,290.40923 h -0.981852 v -0.33073 q -0.170533,0 -0.3514,0.0672 -0.1757,0.062 -0.330729,0.19637 -0.155029,0.12919 -0.273885,0.3359 -0.113688,0.20154 -0.165365,0.48059 v 2.58382 h 0.909505 v 0.88884 h -2.656168 v -0.88884 h 0.738973 l 0.0052,-3.57601 h -0.74414 v -0.88883 h 1.71049 v 0.73897 q 0.09302,-0.16536 0.206705,-0.30489 0.118856,-0.1447 0.258383,-0.24805 0.144694,-0.10852 0.315226,-0.16536 0.1757,-0.062 0.377238,-0.062 0.268717,0 0.506429,0 0.237711,0 0.475423,0.0103 z"
         style="fill:#1a1a1a;stroke-width:0.26458332"
         id="path4703" />
      <path
         d="m 58.355929,294.1351 q -0.304891,0.28422 -0.676961,0.46509 -0.366903,0.18087 -0.837158,0.18087 -0.392741,0 -0.723471,-0.12403 -0.325561,-0.12402 -0.563273,-0.33589 -0.237711,-0.21704 -0.37207,-0.50126 -0.129191,-0.28423 -0.129191,-0.60462 0,-0.34106 0.09819,-0.60461 0.103353,-0.26355 0.268718,-0.45476 0.170532,-0.19637 0.392741,-0.32556 0.227376,-0.13436 0.470255,-0.21187 0.248047,-0.0827 0.501261,-0.11369 0.258383,-0.0362 0.490927,-0.0362 0.37207,0 0.625284,0.0258 0.253215,0.0207 0.459921,0.062 l 0.0052,-0.43925 q 0,-0.28422 -0.08268,-0.49093 -0.08268,-0.21187 -0.232544,-0.34623 -0.149862,-0.13953 -0.361735,-0.20671 -0.206706,-0.0672 -0.465088,-0.0672 -0.242879,0 -0.465088,0.0362 -0.222208,0.031 -0.418579,0.0879 -0.191203,0.0517 -0.356567,0.12402 -0.160197,0.0672 -0.273885,0.1447 l -0.315227,-0.66663 q 0.191203,-0.12402 0.41858,-0.22738 0.227376,-0.10852 0.475423,-0.18086 0.253214,-0.0775 0.511596,-0.11886 0.26355,-0.0465 0.516765,-0.0465 0.465088,0 0.837158,0.11369 0.37207,0.10852 0.630452,0.34106 0.258382,0.23255 0.397909,0.59428 0.139526,0.35657 0.139526,0.85783 l -0.0052,2.67684 h 0.594279 v 0.88884 h -1.555461 z m -1.302246,-0.1602 q 0.191203,0 0.382405,-0.0465 0.191203,-0.0465 0.361735,-0.12403 0.170533,-0.0827 0.315227,-0.18603 0.144694,-0.10852 0.242879,-0.22221 l 0.0052,-1.20923 h -1.116211 q -0.279053,0 -0.511597,0.062 -0.227376,0.062 -0.397908,0.18087 -0.165365,0.11885 -0.258383,0.29455 -0.09302,0.1757 -0.09302,0.40308 0,0.21187 0.07751,0.37207 0.07751,0.15503 0.217041,0.26355 0.144694,0.10335 0.341065,0.1602 0.19637,0.0517 0.434082,0.0517 z"
         style="fill:#1a1a1a;stroke-width:0.26458332"
         id="path4705" />
      <path
         d="m 62.464205,289.27752 h 1.255738 v 0.78031 H 62.45387 l -0.0155,3.09025 q 0,0.31523 0.07235,0.5116 0.07235,0.19637 0.232544,0.27388 0.160197,0.0723 0.361735,0.0723 0.217041,0 0.382406,-0.0362 0.165364,-0.0413 0.361735,-0.13436 l 0.222208,0.64595 q -0.248047,0.12919 -0.521932,0.20154 -0.273885,0.0775 -0.645955,0.0775 -0.3514,0 -0.61495,-0.0878 -0.258382,-0.0827 -0.439249,-0.28422 -0.1757,-0.20154 -0.26355,-0.53744 -0.08785,-0.34106 -0.08785,-0.84749 l 0.0155,-2.94556 h -0.852661 v -0.78031 h 0.862996 v -1.28158 l 0.940511,-0.44442 z"
         style="fill:#1a1a1a;stroke-width:0.26458332"
         id="path4707" />
      <path
         d="m 68.0866,289.27752 h 1.725993 v 4.46484 h 0.594279 v 0.88884 h -1.560629 v -0.4961 q -0.361735,0.27905 -0.790649,0.43408 -0.423747,0.15503 -0.909505,0.15503 -0.403076,0 -0.733805,-0.11369 -0.325562,-0.11885 -0.558106,-0.36173 -0.227376,-0.24805 -0.3514,-0.62529 -0.124023,-0.37723 -0.124023,-0.89917 v -2.55798 h -0.72347 v -0.88883 h 1.725993 v 3.33313 q 0,0.61495 0.28422,0.93017 0.28422,0.31523 0.816488,0.31523 0.315226,0 0.661458,-0.11369 0.3514,-0.11369 0.661458,-0.31523 v -3.26078 H 68.0866 Z"
         style="fill:#1a1a1a;stroke-width:0.26458332"
         id="path4709" />
      <path
         d="m 74.938894,290.71412 q 0,-0.21704 -0.103353,-0.3669 -0.09819,-0.15503 -0.258382,-0.24805 -0.160197,-0.0982 -0.356568,-0.13952 -0.19637,-0.0465 -0.382405,-0.0465 -0.206706,0 -0.382406,0.0465 -0.170532,0.0465 -0.294556,0.13435 -0.124023,0.0879 -0.19637,0.21705 -0.06718,0.12402 -0.06718,0.27905 0,0.26872 0.160196,0.42891 0.165365,0.15503 0.547771,0.28939 l 1.028361,0.36174 q 0.661458,0.2222 0.966349,0.60461 0.304891,0.38241 0.304891,0.91467 0,0.35657 -0.144694,0.65629 -0.139527,0.29456 -0.403076,0.50643 -0.258383,0.20671 -0.625285,0.3204 -0.366903,0.11885 -0.816488,0.11885 -0.625285,0 -1.018025,-0.20154 -0.392741,-0.20153 -0.604615,-0.53226 h -0.537435 v -0.88884 h 1.069703 q 0,0.22221 0.09302,0.38241 0.09819,0.15503 0.253215,0.25321 0.160197,0.0982 0.356567,0.1447 0.201538,0.0465 0.408244,0.0465 0.201538,0 0.387573,-0.0465 0.186035,-0.0517 0.325562,-0.1447 0.144694,-0.0982 0.227376,-0.23254 0.08268,-0.13436 0.08268,-0.30489 0,-0.25838 -0.170532,-0.43925 -0.165365,-0.18087 -0.568441,-0.32556 l -1.023193,-0.38241 q -0.625285,-0.22221 -0.930176,-0.56327 -0.299723,-0.34623 -0.299723,-0.863 0,-0.34106 0.124023,-0.63045 0.129191,-0.28939 0.366903,-0.4961 0.242879,-0.21187 0.589111,-0.33072 0.346232,-0.11886 0.79065,-0.11886 0.573608,0 0.961181,0.1602 0.387573,0.16019 0.697632,0.54777 h 0.501261 v 0.88883 z"
         style="fill:#1a1a1a;stroke-width:0.26458332"
         id="path4711" />
    </g>
  </g>
</svg>
